<svg id="Layer_1" data-name="Layer 1" xmlns="http://www.w3.org/2000/svg" viewBox="0 0 23.79 23.49"><defs><style>.cls-1{fill:#212121;}</style></defs><title>logo shortcut</title><path class="cls-1" d="M33.12,3.47h5.56V20.3H33.12V3.47M57.57,20.3,51,11.71V20.3H45.88V3.47h4.66l6.65,8.64V3.47h5V20.3ZM78.69,7.86V20.3H73.12V7.86H68.35V3.47H83.49V7.86ZM95.18,7.7V9.76h7.87V14H95.18v2.09h8.88V20.3H89.61V3.47h14.23V7.7Zm23.45,8.23h-2.09V20.3H111V3.47h8.14c4.56,0,7.17,2.19,7.17,6a5.86,5.86,0,0,1-2.66,5.33l3.31,5.47h-6.29Zm.48-4.22a1.8,1.8,0,0,0,1.89-2,1.76,1.76,0,0,0-1.89-2h-2.57v4Zm14.06,8.59V3.47h5.57V20.3Zm30.41-8.43c0,5-3.89,8.67-9.24,8.67s-9.24-3.65-9.24-8.67S149,3.3,154.34,3.3s9.24,3.6,9.24,8.57Zm-12.77,0a3.81,3.81,0,0,0,3.6,4c1.92,0,3.46-1.71,3.46-4s-1.54-4-3.46-4a3.75,3.75,0,0,0-3.6,4Zm26.78,4h-2.08V20.3h-5.57V3.47h8.13c4.56,0,7.18,2.19,7.18,6a5.88,5.88,0,0,1-2.66,5.33l3.31,5.47h-6.29Zm.48-4.22a1.8,1.8,0,0,0,1.9-2,1.77,1.77,0,0,0-1.9-2h-2.56v4ZM1.44,1.44h9.18v9.19H1.44Zm21,0v9.19H13.25V1.44ZM13.25,13.25h9.19v9.19H13.25Zm-11.81,0h9.18v9.19H1.44Z"/></svg>